# xmcd CD database file
#
# Track frame offsets:
#	150
#	20985
#	46917
#	50070
#	73020
#	86625
#	100315
#	120887
#	139717
#	141557
#	165965
#	167885
#	191360
#
# Disc length: 2944 seconds
#
# Revision: 1
# Processed by: cddbd v1.5.2PL0 Copyright (c) Steve Scherf et al.
# Submitted via: CDex 1.51
#
DISCID=b60b7e0d
DTITLE=MAGNA CARTA - TIME FOR THE LEAVING CD2
DYEAR=2002
DGENRE=Pop-Folk
TTITLE0=took a long time
TTITLE1=tomorrow is a long time
TTITLE2=summer poem
TTITLE3=wind on the water
TTITLE4=san francisco bay blues
TTITLE5=feel my love
TTITLE6=wild geese
TTITLE7=evergreen
TTITLE8=autumn poem
TTITLE9=only road home
TTITLE10=soliloquy #2
TTITLE11=midnight again
TTITLE12=slow train
EXTD=YEAR: 2002
EXTT0=
EXTT1=
EXTT2=
EXTT3=
EXTT4=
EXTT5=
EXTT6=
EXTT7=
EXTT8=
EXTT9=
EXTT10=
EXTT11=
EXTT12=
PLAYORDER=
